# xmcd CD database file
#
# Track frame offsets:
#	150
#	20458
#	46275
#	78898
#	109654
#	129309
#	152687
#	181740
#	201223
#	225394
#
# Disc length: 3319 seconds
#
# Revision: 0
# Processed by: cddbd v1.5.1PL0 Copyright (c) Steve Scherf et al.
# Submitted via: CDex 1.51
#
DISCID=6c0cf50a
DTITLE=Harbhajan Mann - Dil Dol Gaya
DYEAR=2005
DGENRE=Punjabi
TTITLE0=Harbhajan Mann - Dil Dol Gaya
TTITLE1=Harbhajan Mann - Ki Pata Zindagi Da
TTITLE2=Harbhajan Mann - Bhulli Visari Kahani
TTITLE3=Harbhajan Mann - Salaam Kare Eh Duniya
TTITLE4=Harbhajan Mann - Dupatta
TTITLE5=Harbhajan Mann - Pardes Chale Gaye
TTITLE6=Harbhajan Mann - Babul Mere
TTITLE7=Harbhajan Mann - Dupatta Uk Mix
TTITLE8=Harbhajan Mann - Wanga Kaaliyan
TTITLE9=Harbhajan Mann - Mukhra Chupa
EXTD=YEAR: 2005
EXTT0=
EXTT1=
EXTT2=
EXTT3=
EXTT4=
EXTT5=
EXTT6=
EXTT7=
EXTT8=
EXTT9=
PLAYORDER=
